<?xml version="1.0" standalone="no"?>
<!DOCTYPE svg PUBLIC "-//W3C//DTD SVG 1.1//EN" "http://www.w3.org/Graphics/SVG/1.1/DTD/svg11.dtd" >
<!--
2013-9-30: Created.
-->
<svg>
<metadata>
Created by iconfont
</metadata>
<defs>

<font id="iconfont" horiz-adv-x="1024" >
  <font-face
    font-family="iconfont"
    font-weight="500"
    font-stretch="normal"
    units-per-em="1024"
    ascent="896"
    descent="-128"
  />
    <missing-glyph />
    
    <glyph glyph-name="add-o" unicode="&#58938;" d="M483.555328 412.219392V611.330048c0 15.709184 12.735488 28.444672 28.444672 28.444672h0.146432c15.628288-0.08192 28.23168-12.816384 28.14976-28.443648l-1.033216-199.11168h200.292352c15.709184 0 28.444672-12.735488 28.444672-28.444672s-12.735488-28.444672-28.444672-28.444672H538.968064l-1.041408-200.440832c-0.077824-14.997504-12.25728-27.11552-27.255808-27.11552-14.974976 0-27.11552 12.140544-27.11552 27.11552V355.331072H284.444672c-15.709184 0-28.444672 12.735488-28.444672 28.444672s12.735488 28.444672 28.444672 28.444672h199.110656zM512-14.222336c219.931648 0 398.222336 178.290688 398.222336 398.222336 0 219.931648-178.290688 398.222336-398.222336 398.222336-219.931648 0-398.222336-178.290688-398.222336-398.222336 0-219.931648 178.290688-398.222336 398.222336-398.222336z m0-56.88832C260.64896-71.110656 56.889344 132.64896 56.889344 384S260.64896 839.110656 512 839.110656 967.110656 635.35104 967.110656 384 763.35104-71.110656 512-71.110656z"  horiz-adv-x="1024" />

    
    <glyph glyph-name="aim" unicode="&#58939;" d="M512 839.110656c251.334656 0 455.110656-203.776 455.110656-455.110656 0-251.334656-203.776-455.110656-455.110656-455.110656-251.334656 0-455.110656 203.776-455.110656 455.110656 0 251.334656 203.776 455.110656 455.110656 455.110656z m28.444672-58.368V640c0-15.700992-12.8-28.444672-28.444672-28.444672-15.488 0-28.187648 12.489728-28.440576 27.974656l-0.004096 0.470016V780.742656c-194.8672-13.85472-351.15008-168.271872-367.890432-362.40384l-0.464896-5.894144H256c15.644672 0 28.444672-12.8 28.444672-28.444672 0-15.54432-12.545024-28.189696-27.97568-28.440576l-0.468992-0.004096H115.2c13.91104-194.92352 168.384512-351.207424 362.462208-367.89248l5.89312-0.462848V128c0 15.644672 12.8 28.444672 28.444672 28.444672 15.488 0 28.188672-12.545024 28.440576-27.97568l0.004096-0.468992v-140.8c194.8672 13.85472 351.15008 168.328192 367.890432 362.461184l0.464896 5.894144H768c-15.644672 0-28.444672 12.74368-28.444672 28.444672 0 15.488 12.545024 28.187648 27.97568 28.440576l0.468992 0.004096h140.8c-14.051328 196.892672-171.52 354.304-368.355328 368.297984zM512 440.866816c31.403008 0 56.889344-25.430016 56.889344-56.889344 0-31.459328-25.48736-56.889344-56.889344-56.889344-31.403008 0-56.889344 25.430016-56.889344 56.889344 0 31.459328 25.48736 56.88832 56.889344 56.88832z"  horiz-adv-x="1024" />

    
    <glyph glyph-name="arrow-left" unicode="&#58940;" d="M303.220736 375.77216c-3.29728 13.923328 0.484352 29.182976 11.344896 40.04352l341.925888 341.925888c16.661504 16.662528 43.676672 16.662528 60.3392 0s16.662528-43.677696 0-60.340224L404.996096 385.56672l311.883776-311.883776c16.662528-16.662528 16.662528-43.677696 0-60.340224s-43.677696-16.662528-60.340224 0L314.614784 355.268608a42.467328 42.467328 0 0 0-11.394048 20.503552z"  horiz-adv-x="1024" />

    
    <glyph glyph-name="arrow-down" unicode="&#58941;" d="M505.952256 144.971776a42.467328 42.467328 0 0 0-20.503552 11.393024L143.52384 498.290688c-16.662528 16.661504-16.662528 43.676672 0 60.3392 16.661504 16.662528 43.676672 16.662528 60.3392 0L515.74784 246.746112 827.582464 558.58176c16.661504 16.662528 43.676672 16.662528 60.3392 0s16.662528-43.677696 0-60.340224L545.9968 156.316672c-10.861568-10.861568-26.120192-14.6432-40.044544-11.34592z"  horiz-adv-x="1024" />

    
    <glyph glyph-name="arrow" unicode="&#58942;" d="M728.223744 375.77216a42.467328 42.467328 0 0 0-11.393024-20.503552L374.90688 13.34272c-16.662528-16.662528-43.677696-16.662528-60.340224 0s-16.662528 43.677696 0 60.340224L626.449408 385.56672 314.614784 697.401344c-16.662528 16.662528-16.662528 43.677696 0 60.340224 16.661504 16.662528 43.676672 16.662528 60.3392 0L716.879872 415.81568c10.860544-10.860544 14.642176-26.120192 11.343872-40.04352z"  horiz-adv-x="1024" />

    
    <glyph glyph-name="arrow-up" unicode="&#58943;" d="M525.492224 604.1088a42.467328 42.467328 0 0 0 20.504576-11.394048L887.92064 250.788864c16.662528-16.661504 16.662528-43.676672 0-60.3392s-43.677696-16.662528-60.3392 0L515.698688 502.33344 203.86304 190.497792c-16.662528-16.661504-43.677696-16.661504-60.3392 0-16.662528 16.662528-16.662528 43.677696 0 60.340224L485.44768 592.763904c10.860544 10.860544 26.120192 14.642176 40.04352 11.343872z"  horiz-adv-x="1024" />

    
    <glyph glyph-name="circle" unicode="&#58946;" d="M512-7.110656c216.004608 0 391.110656 175.106048 391.110656 391.110656S728.004608 775.110656 512 775.110656 120.889344 600.004608 120.889344 384 295.995392-7.110656 512-7.110656z m0-64C260.64896-71.110656 56.889344 132.64896 56.889344 384S260.64896 839.110656 512 839.110656 967.110656 635.35104 967.110656 384 763.35104-71.110656 512-71.110656z"  horiz-adv-x="1024" />

    
    <glyph glyph-name="closed-eye" unicode="&#58947;" d="M130.859008 586.964992c59.551744-63.721472 142.072832-113.575936 223.08352-141.656064 204.224512-70.776832 400.790528 0.528384 558.675968 141.656064 29.75232 26.591232 73.49248-17.729536 43.543552-44.488704-20.455424-18.286592-41.659392-35.634176-63.526912-51.862528 18.356224-36.08064 36.703232-72.1408 55.06048-108.20096 18.302976-35.960832-34.85696-67.776512-53.19168-31.752192-19.87584 39.112704-39.785472 78.168064-59.669504 117.248l6.393856-12.560384c-36.478976-23.02464-74.477568-42.846208-113.641472-58.73664l44.539904-116.064256c14.374912-37.4528-43.885568-53.720064-58.943488-17.829888l-0.443392 1.103872-43.1616 112.452608c-40.722432-12.041216-82.463744-19.688448-124.855296-22.187008l-4.576256-0.249856 0.038912-0.759808c0.01024-0.258048 0.018432-0.518144 0.023552-0.77824l0.008192-0.790528v-132.120576c0-40.169472-60.362752-40.57088-61.570048-1.205248l-0.018432 1.205248V351.50848c0 0.999424 0.036864 1.974272 0.109568 2.924544-41.269248 2.881536-82.967552 10.881024-124.76416 24.659968-0.965632 0.31744-1.932288 0.638976-2.89792 0.96256l-47.02208-122.540032c-14.179328-36.954112-72.711168-21.413888-59.800576 15.599616l0.413696 1.128448 47.20128 123.000832a36.702208 36.702208 0 0 0 2.12992 4.595712c-36.094976 15.526912-71.549952 34.24256-104.86784 56.02816-24.143872-31.972352-48.284672-63.9488-72.431616-95.904768-10.22976-13.568-26.24512-20.799488-42.12736-11.29472-12.962816 7.76192-21.16608 29.000704-11.352064 42.628096l0.303104 0.4096 75.836416 100.410368c-18.518016 15.033344-35.97824 31.161344-52.051968 48.359424-27.411456 29.32736 16.0768 73.879552 43.551744 44.488704z m409.28768-233.11872v-0.009216 0.01024z"  horiz-adv-x="1024" />

    
    <glyph glyph-name="cart-o" unicode="&#58948;" d="M341.332992 42.667008m-56.889344 0a56.889344 56.889344 0 1 1 113.778688 0 56.889344 56.889344 0 1 1-113.778688 0ZM739.555328 42.667008m-56.889344 0a56.889344 56.889344 0 1 1 113.778688 0 56.889344 56.889344 0 1 1-113.778688 0ZM232.368128 611.201024l42.764288-372.946944c1.647616-14.3616 13.80352-25.203712 28.259328-25.203712h500.655104c13.765632 0 25.554944 9.856 27.995136 23.40352l61.45024 341.261312c2.783232 15.461376-7.493632 30.252032-22.953984 33.035264a28.444672 28.444672 0 0 1-5.041152 0.45056h-633.12896z m-6.52288 56.889344h639.65184c5.070848 0 10.13248-0.452608 15.122432-1.35168 46.383104-8.351744 77.212672-52.722688 68.860928-99.104768l-61.45024-341.262336c-7.318528-40.641536-42.687488-70.21056-83.98336-70.21056h-500.65408c-43.367424 0-79.838208 32.52736-84.779008 75.61216L164.919296 700.041216c-1.646592 14.3616-13.80352 25.203712-28.259328 25.203712H56.889344c-15.710208 0-28.444672 12.735488-28.444672 28.444672S41.179136 782.134272 56.889344 782.134272h79.770624c43.367424 0 79.838208-32.52736 84.777984-75.61216l4.407296-38.431744z"  horiz-adv-x="1024" />

    
    <glyph glyph-name="delete" unicode="&#58950;" d="M144.384 450.60608c0-0.0256-0.02048-0.04608-0.04608-0.04608h-10.14784a0.04608 0.04608 0 0 0-0.04608 0.04608V460.8h10.24v-10.19392zM145.92 461.824h-13.312a0.512 0.512 0 0 1 0-1.024h0.512v-10.19392c0-0.590848 0.479232-1.07008 1.07008-1.07008h10.14784c0.590848 0 1.07008 0.479232 1.07008 1.07008V460.8h0.512a0.512 0.512 0 0 1 0 1.024z m-4.096-9.216a0.512 0.512 0 0 1 0.512 0.512v5.12a0.512 0.512 0 0 1-1.024 0v-5.12a0.512 0.512 0 0 1 0.512-0.512m-5.12 0a0.512 0.512 0 0 1 0.512 0.512v5.12a0.512 0.512 0 0 1-1.024 0v-5.12a0.512 0.512 0 0 1 0.512-0.512m2.56 0a0.512 0.512 0 0 1 0.512 0.512v5.12a0.512 0.512 0 0 1-1.024 0v-5.12a0.512 0.512 0 0 1 0.512-0.512m-3.584 10.24h7.168a0.512 0.512 0 0 1 0 1.024h-7.168a0.512 0.512 0 0 1 0-1.024M796.444672 45.220864a2.54976 2.54976 0 0 0-2.56-2.56H230.115328a2.54976 2.54976 0 0 0-2.56 2.56V611.550208h568.889344V45.21984z m85.332992 623.217664H142.22336c-15.700992 0-28.444672-12.742656-28.444672-28.444672 0-15.700992 12.74368-28.443648 28.444672-28.443648h28.444672V45.21984c0-32.82432 26.624-59.44832 59.44832-59.44832h563.769344c32.82432 0 59.44832 26.624 59.44832 59.44832V611.550208h28.444672c15.700992 0 28.444672 12.742656 28.444672 28.443648 0 15.702016-12.74368 28.444672-28.444672 28.444672zM654.22336 156.444672c15.700992 0 28.444672 12.742656 28.444672 28.444672V469.332992c0 15.702016-12.74368 28.444672-28.444672 28.444672-15.700992 0-28.444672-12.742656-28.444672-28.444672v-284.443648c0-15.702016 12.74368-28.444672 28.444672-28.444672m-284.444672 0c15.700992 0 28.444672 12.742656 28.444672 28.444672V469.332992c0 15.702016-12.74368 28.444672-28.444672 28.444672-15.700992 0-28.444672-12.742656-28.444672-28.444672v-284.443648c0-15.702016 12.74368-28.444672 28.444672-28.444672m142.222336 0c15.700992 0 28.444672 12.742656 28.444672 28.444672V469.332992c0 15.702016-12.74368 28.444672-28.444672 28.444672-15.700992 0-28.444672-12.742656-28.444672-28.444672v-284.443648c0-15.702016 12.74368-28.444672 28.444672-28.444672M312.889344 725.332992h398.221312c15.702016 0 28.444672 12.74368 28.444672 28.444672 0 15.700992-12.742656 28.444672-28.444672 28.444672H312.889344c-15.702016 0-28.444672-12.74368-28.444672-28.444672 0-15.700992 12.742656-28.444672 28.444672-28.444672"  horiz-adv-x="1024" />

    
    <glyph glyph-name="close" unicode="&#58951;" d="M511.65696 424.001536l140.791808 140.792832c11.108352 11.108352 29.118464 11.108352 40.226816 0 11.108352-11.108352 11.108352-29.118464 0-40.226816L551.882752 383.77472l140.792832-140.792832c11.108352-11.108352 11.108352-29.118464 0-40.226816-11.108352-11.108352-29.118464-11.108352-40.226816 0L511.65696 343.547904 370.864128 202.755072c-11.108352-11.108352-29.118464-11.108352-40.226816 0-11.108352 11.108352-11.108352 29.118464 0 40.226816L471.42912 383.77472 330.637312 524.567552c-11.108352 11.108352-11.108352 29.118464 0 40.226816 11.108352 11.108352 29.118464 11.108352 40.226816 0l140.792832-140.792832zM512-14.222336c219.931648 0 398.222336 178.290688 398.222336 398.222336 0 219.931648-178.290688 398.222336-398.222336 398.222336-219.931648 0-398.222336-178.290688-398.222336-398.222336 0-219.931648 178.290688-398.222336 398.222336-398.222336z m0-56.88832C260.64896-71.110656 56.889344 132.64896 56.889344 384S260.64896 839.110656 512 839.110656 967.110656 635.35104 967.110656 384 763.35104-71.110656 512-71.110656z"  horiz-adv-x="1024" />

    
    <glyph glyph-name="flag-o" unicode="&#58953;" d="M715.155456 510.733312c-39.262208 10.346496-70.588416 27.63776-108.435456 55.95136-7.17312 5.36576-14.087168 10.71616-27.201536 20.928512-42.791936 33.16224-67.456 47.673344-103.824384 57.64096-39.800832 10.909696-81.45408 15.322112-125.215744 13.186048l-75.323392-281.109504c47.54432 1.4336 92.83584-3.124224 135.7824-13.795328 44.10368-10.957824 76.52352-30.015488 117.547008-63.42144 4.953088-4.03456 9.938944-8.174592 19.264512-15.945728 42.058752-34.922496 65.615872-49.005568 103.942144-57.897984 31.391744-7.283712 54.610944-8.503296 70.372352-5.57056l74.442752 277.825536c-27.159552 1.011712-54.306816 5.082112-81.350656 12.208128z m-457.79968-200.720384l-70.79936-258.535424c-4.840448-17.676288-23.095296-28.082176-40.771584-23.241728-17.677312 4.840448-28.0832 23.095296-23.241728 40.771584l63.432704 231.636992-0.084992-0.016384 100.478976 374.990848c7.46496 27.85792 32.065536 47.706112 60.87168 49.113088 50.68288 2.473984 99.34848-2.681856 145.9968-15.46752 111.604736-30.589952 149.420032-110.790656 238.829568-134.350848 51.16928-13.484032 102.321152-13.689856 153.453568-0.6144L778.120192 173.47072c-31.331328-22.510592-78.47424-26.462208-141.42976-11.854848-118.598656 27.517952-147.074048 113.98144-241.757184 137.506816-42.684416 10.605568-88.544256 14.235648-137.577472 10.889216z"  horiz-adv-x="1024" />

    
    <glyph glyph-name="eye-o" unicode="&#58954;" d="M807.954432 519.683072C725.117952 594.989056 623.844352 640 512 640c-111.844352 0-213.117952-45.010944-295.954432-120.316928-58.077184-52.79744-101.267456-119.9616-102.250496-135.175168 0.137216 2.134016 1.082368-0.739328 3.4816-5.76512 4.56704-9.558016 11.793408-21.54496 21.1456-34.748416 21.890048-30.90432 52.386816-64.439296 87.351296-94.84288C312.73984 173.528064 412.740608 128 512 128c99.259392 0 199.261184 45.529088 286.226432 121.150464 34.96448 30.404608 65.461248 63.939584 87.351296 94.84288 9.352192 13.203456 16.57856 25.191424 21.1456 34.74944 2.217984 4.645888 3.192832 7.452672 3.43552 6.269952-1.860608 16.139264-44.746752 82.43712-102.204416 134.670336zM512 696.889344c284.444672 0 455.110656-256 455.110656-312.889344C967.110656 327.110656 768 71.110656 512 71.110656c-256 0-455.110656 256-455.110656 312.889344 0 56.889344 170.665984 312.889344 455.110656 312.889344z m0-142.22336c-94.256128 0-170.667008-76.409856-170.667008-170.665984S417.743872 213.332992 512 213.332992 682.667008 289.743872 682.667008 384 606.256128 554.667008 512 554.667008z m0-56.88832c62.83776 0 113.777664-50.939904 113.777664-113.777664S574.83776 270.222336 512 270.222336 398.222336 321.16224 398.222336 384 449.16224 497.777664 512 497.777664z"  horiz-adv-x="1024" />

    
    <glyph glyph-name="gold-coin-o" unicode="&#58955;" d="M454.7072 469.332992l-81.883136 81.883136c-11.108352 11.108352-11.108352 29.11744 0 40.225792 11.108352 11.108352 29.118464 11.108352 40.226816 0l99.959808-99.959808 99.959808 99.959808c11.108352 11.108352 29.118464 11.108352 40.226816 0 11.108352-11.108352 11.108352-29.11744 0-40.225792l-81.883136-81.883136h82.90816c15.709184 0 28.444672-12.734464 28.444672-28.443648 0-15.710208-12.735488-28.444672-28.444672-28.444672H540.444672v-85.334016h113.77664c15.710208 0 28.445696-12.734464 28.445696-28.443648 0-15.710208-12.735488-28.444672-28.444672-28.444672H540.444672v-113.777664C540.444672 140.735488 527.70816 128 512 128s-28.444672 12.735488-28.444672 28.444672v113.77664h-113.77664c-15.710208 0-28.445696 12.735488-28.445696 28.445696 0 15.70816 12.735488 28.443648 28.444672 28.443648h113.777664v85.334016h-113.77664c-15.710208 0-28.445696 12.734464-28.445696 28.444672 0 15.70816 12.735488 28.443648 28.444672 28.443648h84.929536zM512-14.222336c219.931648 0 398.222336 178.290688 398.222336 398.222336 0 219.931648-178.290688 398.222336-398.222336 398.222336-219.931648 0-398.222336-178.290688-398.222336-398.222336 0-219.931648 178.290688-398.222336 398.222336-398.222336z m0-56.88832C260.64896-71.110656 56.889344 132.64896 56.889344 384S260.64896 839.110656 512 839.110656 967.110656 635.35104 967.110656 384 763.35104-71.110656 512-71.110656z"  horiz-adv-x="1024" />

    
    <glyph glyph-name="like-o" unicode="&#58958;" d="M417.144832 111.735808l94.977024-101.270528 341.21728 361.694208c78.251008 82.948096 76.356608 213.086208-4.278272 293.720064-79.32416 79.32416-207.93344 79.32416-287.256576 0l-50.22208-50.22208-50.210816 50.210816c-79.273984 79.273984-207.802368 79.273984-287.075328 0-80.51712-80.51712-82.312192-210.495488-4.04992-293.206016l246.898688-260.92544z m84.452352 594.359296l9.984-9.984 9.997312 9.995264c101.53984 101.53984 266.16832 101.53984 367.70816 0 102.395904-102.39488 104.802304-267.652096 5.43232-372.984832L553.50272-28.572672a56.88832 56.88832 0 0 0-2.464768-2.4576c-22.91712-21.49376-58.918912-20.338688-80.411648 2.579456l-94.802944 101.086208-246.898688 260.926464c-99.436544 105.086976-97.15712 270.232576 5.144576 372.533248 101.489664 101.489664 266.038272 101.489664 367.527936 0z"  horiz-adv-x="1024" />

    
    <glyph glyph-name="more-o" unicode="&#58960;" d="M512-7.110656c216.004608 0 391.110656 175.106048 391.110656 391.110656S728.004608 775.110656 512 775.110656 120.889344 600.004608 120.889344 384 295.995392-7.110656 512-7.110656z m0-64C260.64896-71.110656 56.889344 132.64896 56.889344 384S260.64896 839.110656 512 839.110656 967.110656 635.35104 967.110656 384 763.35104-71.110656 512-71.110656zM512 384m-56.889344 0a56.889344 56.889344 0 1 1 113.778688 0 56.889344 56.889344 0 1 1-113.778688 0ZM284.444672 384m-56.889344 0a56.889344 56.889344 0 1 1 113.778688 0 56.889344 56.889344 0 1 1-113.778688 0ZM739.555328 384m-56.889344 0a56.889344 56.889344 0 1 1 113.778688 0 56.889344 56.889344 0 1 1-113.778688 0Z"  horiz-adv-x="1024" />

    
    <glyph glyph-name="info-o" unicode="&#58959;" d="M512-14.222336c219.931648 0 398.222336 178.290688 398.222336 398.222336 0 219.931648-178.290688 398.222336-398.222336 398.222336C292.068352 782.222336 113.777664 603.931648 113.777664 384c0-219.931648 178.290688-398.222336 398.222336-398.222336z m0-56.88832C260.64896-71.110656 56.889344 132.64896 56.889344 384S260.64896 839.110656 512 839.110656 967.110656 635.35104 967.110656 384 763.35104-71.110656 512-71.110656zM540.444672 184.889344h28.444672c15.70816 0 28.443648-12.735488 28.443648-28.444672S584.598528 128 568.889344 128H455.110656c-15.70816 0-28.443648 12.735488-28.443648 28.444672s12.734464 28.444672 28.443648 28.444672h28.444672v256h-14.222336c-15.70816 0-28.443648 12.734464-28.443648 28.443648 0 15.710208 12.734464 28.444672 28.443648 28.444672H512c15.709184 0 28.444672-12.734464 28.444672-28.444672v-284.443648zM512 597.332992m-42.667008 0a42.667008 42.667008 0 1 1 85.334016 0 42.667008 42.667008 0 1 1-85.334016 0Z"  horiz-adv-x="1024" />

    
    <glyph glyph-name="notes-o" unicode="&#58961;" d="M853.332992 42.667008v625.77664h-113.77664V640c0-15.709184-12.735488-28.444672-28.445696-28.444672-15.70816 0-28.443648 12.735488-28.443648 28.444672v28.444672H341.332992V640c0-15.709184-12.734464-28.444672-28.443648-28.444672-15.710208 0-28.444672 12.735488-28.444672 28.444672v28.444672H170.667008v-625.777664h682.665984z m-113.77664 682.665984h113.77664c31.460352 0 56.889344-25.428992 56.889344-56.88832v-625.777664c0-31.460352-25.428992-56.889344-56.889344-56.889344H170.667008c-31.460352 0-56.889344 25.428992-56.889344 56.889344v625.77664c0 31.460352 25.428992 56.889344 56.889344 56.889344h113.77664v28.444672c0 15.709184 12.735488 28.444672 28.445696 28.444672 15.70816 0 28.443648-12.735488 28.443648-28.444672v-28.444672h341.334016v28.444672c0 15.709184 12.734464 28.444672 28.443648 28.444672 15.710208 0 28.444672-12.735488 28.444672-28.444672v-28.444672zM312.88832 270.22336c-15.710208 0-28.444672 12.734464-28.444672 28.444672 0 15.70816 12.734464 28.443648 28.444672 28.443648h398.221312c15.710208 0 28.444672-12.734464 28.444672-28.443648 0-15.710208-12.734464-28.444672-28.444672-28.444672H312.889344z m0 113.777664c-15.710208 0-28.444672 12.735488-28.444672 28.444672s12.734464 28.444672 28.444672 28.444672h398.221312c15.710208 0 28.444672-12.735488 28.444672-28.444672S726.820864 384 711.110656 384H312.889344z m0-227.555328c-15.710208 0-28.444672 12.734464-28.444672 28.444672 0 15.70816 12.734464 28.443648 28.444672 28.443648h170.665984c15.709184 0 28.444672-12.734464 28.444672-28.443648 0-15.710208-12.735488-28.444672-28.444672-28.444672H312.889344z"  horiz-adv-x="1024" />

    
    <glyph glyph-name="label-o" unicode="&#58962;" d="M796.444672 20.936704V782.22336H227.555328v-761.285632L512 163.160064l284.444672-142.22336zM227.555328 839.110656h568.889344c31.418368 0 56.88832-25.469952 56.88832-56.88832v-761.285632c0-31.418368-25.469952-56.88832-56.88832-56.88832a56.889344 56.889344 0 0 0-25.44128 6.00576L512 99.555328 252.996608-29.945856c-28.101632-14.051328-62.273536-2.660352-76.32384 25.44128a56.889344 56.889344 0 0 0-6.00576 25.44128V782.22336c0 31.418368 25.469952 56.88832 56.88832 56.88832z m142.22336-227.555328h284.443648c15.709184 0 28.444672-12.734464 28.444672-28.444672 0-15.70816-12.735488-28.443648-28.444672-28.443648H369.77664c-15.709184 0-28.444672 12.734464-28.444672 28.443648 0 15.710208 12.735488 28.444672 28.444672 28.444672z m0-170.665984h284.443648c15.709184 0 28.444672-12.735488 28.444672-28.444672S669.93152 384 654.222336 384H369.77664c-15.709184 0-28.444672 12.735488-28.444672 28.444672s12.735488 28.444672 28.444672 28.444672z"  horiz-adv-x="1024" />

    
    <glyph glyph-name="logistics" unicode="&#58963;" d="M646.280192 782.222336c54.235136 0 100.931584-38.28224 111.567872-91.46368l38.596608-192.980992 131.76832-43.922432c23.22944-7.743488 38.897664-29.483008 38.897664-53.96992v-300.32896c0-31.419392-25.469952-56.889344-56.88832-56.889344H682.667008v56.88832h227.555328V399.885312l-163.08736 54.363136-45.070336 225.352704c-5.318656 26.591232-28.66688 45.73184-55.784448 45.73184H170.667008V782.22336h475.613184zM455.110656 384c15.710208 0 28.444672-12.735488 28.444672-28.444672s-12.734464-28.444672-28.444672-28.444672H113.777664c-15.709184 0-28.444672 12.735488-28.444672 28.444672S98.06848 384 113.777664 384h341.332992z m0 170.667008c15.710208 0 28.444672-12.735488 28.444672-28.444672s-12.734464-28.444672-28.444672-28.444672H113.777664c-15.709184 0-28.444672 12.735488-28.444672 28.444672s12.735488 28.444672 28.444672 28.444672h341.332992z m-284.914688 170.67008c-15.49312 0.25088-27.973632 12.888064-27.973632 28.440576 0 15.709184 12.734464 28.444672 28.444672 28.444672h475.613184c54.235136 0 100.931584-38.28224 111.567872-91.46368l38.596608-192.980992 131.76832-43.922432c23.22944-7.743488 38.897664-29.483008 38.897664-53.96992v-300.32896c0-31.419392-25.469952-56.889344-56.88832-56.889344H682.667008v56.88832h227.555328V399.885312l-163.08736 54.363136-45.070336 225.352704c-5.318656 26.591232-28.66688 45.73184-55.784448 45.73184H170.667008zM625.777664 14.222336c31.419392 0 56.889344 25.469952 56.889344 56.88832 0 31.419392-25.469952 56.889344-56.889344 56.889344-31.418368 0-56.88832-25.469952-56.88832-56.889344 0-31.418368 25.469952-56.88832 56.88832-56.88832z m0-56.889344C562.939904-42.667008 512 8.27392 512 71.110656s50.939904 113.778688 113.777664 113.778688 113.777664-50.940928 113.777664-113.778688c0-62.83776-50.939904-113.77664-113.77664-113.77664zM227.555328 14.222336c31.419392 0 56.889344 25.469952 56.889344 56.88832 0 31.419392-25.469952 56.889344-56.889344 56.889344-31.418368 0-56.88832-25.469952-56.88832-56.889344 0-31.418368 25.469952-56.88832 56.88832-56.88832z m0-56.889344c-62.83776 0-113.77664 50.939904-113.77664 113.777664s50.93888 113.778688 113.77664 113.778688 113.777664-50.940928 113.777664-113.778688c0-62.83776-50.939904-113.77664-113.77664-113.77664zM284.444672 42.667008v56.88832h284.444672v-56.88832z"  horiz-adv-x="1024" />

    
    <glyph glyph-name="photo-o" unicode="&#58964;" d="M312.889344 497.777664c-15.702016 0-28.444672 12.8-28.444672 28.444672 0 15.644672 12.742656 28.444672 28.444672 28.444672 15.700992 0 28.443648-12.8 28.443648-28.444672 0-15.644672-12.742656-28.444672-28.443648-28.444672m0 113.777664c-47.161344 0-85.334016-38.228992-85.334016-85.332992s38.172672-85.332992 85.334016-85.332992c47.16032 0 85.332992 38.228992 85.332992 85.332992s-38.172672 85.332992-85.332992 85.332992M669.582336 560.468992c-11.321344 13.25568-27.249664 19.91168-43.179008 19.91168-16.156672 0-32.31232-6.883328-43.689984-20.537344L341.332992 270.22336l-73.499648 73.556992C256.681984 354.930688 242.118656 360.448 227.555328 360.448c-14.505984 0-29.070336-5.518336-40.220672-16.668672l-73.556992-73.556992V668.444672H910.22336v-388.721664l-240.64 280.745984z m240.64-460.91264H113.77664v90.22464l113.777664 113.777664 73.558016-73.556992c23.66464-23.665664 62.52032-21.844992 83.968 3.868672L626.28864 523.491328h0.113664L910.22336 192.284672v-92.729344z m0 625.77664H113.77664c-31.403008 0-56.88832-25.428992-56.88832-56.88832v-568.88832c0-31.403008 25.485312-56.889344 56.88832-56.889344H910.22336c31.459328 0 56.88832 25.486336 56.88832 56.88832V668.444672c0 31.459328-25.428992 56.88832-56.88832 56.88832z"  horiz-adv-x="1024" />

    
    <glyph glyph-name="phone-o" unicode="&#58965;" d="M302.21312 725.363712c-0.740352 0-1.42336-0.05632-2.162688-0.05632-23.836672-1.024-52.905984-18.88768-88.745984-54.72768-143.076352-143.131648 139.776-429.339648 142.676992-432.24064 2.900992-2.788352 288.939008-285.924352 432.241664-142.620672 35.84 35.84 53.702656 64.852992 54.726656 88.68864 0.854016 22.016-11.945984 44.99968-41.699328 74.752-29.468672 29.526016-54.100992 43.46368-74.580992 41.586688-18.716672-1.820672-38.684672-18.31936-59.33568-49.09568-18.601984-31.174656-44.315648-40.675328-62.406656-42.894336-47.104-6.029312-102.798336 26.454016-177.436672 101.092352-74.694656 74.752-106.836992 131.12832-101.091328 177.379328 2.219008 18.147328 11.662336 43.804672 44.089344 63.260672 29.581312 19.854336 46.08 39.822336 47.899648 58.537984 1.93536 19.968-12.059648 45.056-41.641984 74.63936-28.672 28.672-51.2 41.698304-72.534016 41.698304m385.195008-727.209984c-171.121664 0-363.292672 189.609984-373.646336 199.964672-13.36832 13.42464-325.574656 329.78432-142.676992 512.681984 47.046656 47.04768 87.267328 69.745664 126.633984 71.339008 52.62336 1.990656 91.307008-32.256 117.248-58.25536 42.780672-42.722304 61.782016-82.146304 58.027008-120.37632-3.64032-36.97664-27.819008-70.029312-74.068992-101.033984-14.848-8.931328-17.35168-16.497664-18.091008-22.187008-1.820672-15.019008 6.713344-51.996672 84.878336-130.219008 78.108672-78.051328 115.086336-86.356992 130.219008-84.877312 5.68832 0.739328 13.254656 3.299328 21.390336 16.896 31.80032 47.444992 64.852992 71.68 101.830656 75.264 37.716992 4.265984 77.539328-15.132672 120.32-57.970688 25.998336-25.997312 60.416-66.445312 58.310656-117.30432-1.64864-39.31136-24.291328-79.531008-71.337984-126.577664-41.244672-41.244672-89.259008-57.344-139.036672-57.344"  horiz-adv-x="1024" />

    
    <glyph glyph-name="search" unicode="&#58967;" d="M412.45184 225.487872c141.384704 0 256 114.615296 256 256s-114.615296 256-256 256-256-114.615296-256-256 114.615296-256 256-256z m241.847296 57.46688l255.670272-255.670272c11.108352-11.108352 11.108352-29.118464 0-40.226816-11.107328-11.108352-29.11744-11.108352-40.225792 0L614.352896 242.448384c-54.493184-46.072832-124.9536-73.849856-201.901056-73.849856-172.803072 0-312.88832 140.085248-312.88832 312.889344S239.648768 794.376192 412.45184 794.376192c172.804096 0 312.889344-140.084224 312.889344-312.88832 0-75.37152-26.650624-144.519168-71.042048-198.53312z"  horiz-adv-x="1024" />

    
    <glyph glyph-name="records" unicode="&#58968;" d="M540.444672 782.222336H223.403008c-29.12768 0-52.736-23.609344-52.736-52.736v-747.860992c0-29.12768 23.60832-52.736 52.736-52.736h520.30464c29.12768 0 52.736 23.60832 52.736 52.736V526.222336c0 15.700992-12.742656 28.444672-28.443648 28.444672s-28.444672-12.74368-28.444672-28.444672V-14.22336h-512V725.332992h312.889344c15.700992 0 28.444672 12.74368 28.444672 28.444672 0 15.700992-12.74368 28.444672-28.444672 28.444672m-56.889344-568.889344H312.889344c-15.702016 0-28.444672-12.742656-28.444672-28.443648 0-15.702016 12.742656-28.444672 28.444672-28.444672h170.665984c15.702016 0 28.444672 12.742656 28.444672 28.444672 0 15.700992-12.742656 28.443648-28.444672 28.443648m0-113.77664H312.889344c-15.702016 0-28.444672-12.74368-28.444672-28.445696 0-15.700992 12.742656-28.443648 28.444672-28.443648h170.665984c15.702016 0 28.444672 12.742656 28.444672 28.443648 0 15.702016-12.742656 28.444672-28.444672 28.444672M744.390656 839.110656c-7.22432 0-14.505984-2.787328-20.08064-8.30464l-215.552-215.609344a30.078976 30.078976 0 0 1-7.794688-13.539328L471.552 491.918336c-5.006336-18.489344 9.329664-35.612672 27.193344-35.612672 2.445312 0 4.948992 0.340992 7.451648 1.024l109.681664 29.411328c5.12 1.366016 9.785344 4.03968 13.540352 7.793664l215.66464 215.552c11.037696 11.15136 11.037696 29.07136 0 40.164352l-80.610304 80.553984c-5.57568 5.51936-12.8 8.305664-20.082688 8.305664m0-68.72064l40.220672-40.220672-190.350336-190.35136-54.89664-14.733312 14.676992 54.953984 190.349312 190.35136"  horiz-adv-x="1024" />

    
    <glyph glyph-name="star-o" unicode="&#58969;" d="M720.692224 259.3024l170.748928 191.096832-250.462208 54.23616L512 726.079488 383.021056 504.635392l-250.462208-54.23616 170.748928-191.096832-25.81504-254.963712L512 107.67872l234.507264-103.340032-25.81504 254.963712zM512 45.51168L255.744-67.412992c-14.37696-6.335488-31.16544 0.183296-37.499904 14.558208a28.444672 28.444672 0 0 0-2.270208 14.336l28.208128 278.60992L57.6 448.91136c-10.468352 11.71456-9.45664 29.696 2.25792 40.163328a28.444672 28.444672 0 0 0 12.932096 6.588416l273.690624 59.267072 140.941312 241.98144c7.906304 13.574144 25.320448 18.168832 38.895616 10.262528a28.444672 28.444672 0 0 0 10.262528-10.262528l140.941312-241.98144 273.690624-59.267072c15.353856-3.323904 25.105408-18.465792 21.78048-33.819648a28.444672 28.444672 0 0 0-6.58944-12.93312L779.81696 240.093184l28.208128-278.60992c1.583104-15.629312-9.8048-29.58336-25.434112-31.16544-4.89472-0.495616-9.833472 0.28672-14.336 2.271232L512 45.510656z"  horiz-adv-x="1024" />

    
    <glyph glyph-name="scan" unicode="&#58966;" d="M113.777664 583.110656v142.22336c0 31.418368 25.469952 56.88832 56.889344 56.88832h142.222336c15.70816 0 28.443648-12.735488 28.443648-28.444672s-12.734464-28.444672-28.443648-28.444672h-142.22336v-142.222336c0-15.70816-12.734464-28.443648-28.443648-28.443648-15.709184 0-28.444672 12.734464-28.444672 28.443648z m56.889344-398.221312v-142.22336h142.222336c15.70816 0 28.443648-12.734464 28.443648-28.443648 0-15.709184-12.734464-28.444672-28.443648-28.444672h-142.22336c-31.418368 0-56.88832 25.469952-56.88832 56.889344V184.889344c0 15.70816 12.735488 28.443648 28.444672 28.443648s28.444672-12.734464 28.444672-28.443648z m682.665984 398.221312v142.22336H711.110656c-15.70816 0-28.443648 12.734464-28.443648 28.443648 0 15.709184 12.734464 28.444672 28.443648 28.444672h142.22336c31.418368 0 56.88832-25.469952 56.88832-56.889344v-142.222336c0-15.70816-12.735488-28.443648-28.444672-28.443648s-28.444672 12.734464-28.444672 28.443648z m56.889344-398.221312v-142.22336c0-31.418368-25.469952-56.88832-56.889344-56.88832H711.110656c-15.70816 0-28.443648 12.735488-28.443648 28.444672s12.734464 28.444672 28.443648 28.444672h142.22336V184.889344c0 15.70816 12.734464 28.443648 28.443648 28.443648 15.709184 0 28.444672-12.734464 28.444672-28.443648zM142.222336 412.444672H881.77664c15.709184 0 28.444672-12.735488 28.444672-28.444672s-12.735488-28.444672-28.444672-28.444672H142.22336c-15.709184 0-28.444672 12.735488-28.444672 28.444672s12.735488 28.444672 28.444672 28.444672z"  horiz-adv-x="1024" />

    
    <glyph glyph-name="thumb-circle-o" unicode="&#58970;" d="M592.57856 560.574464l-6.105088-79.698944 71.964672 8.56064c38.227968 4.554752 64.982016-25.2928 55.424-64.602112-0.293888-0.868352-0.951296-3.342336-1.676288-7.258112-0.529408-2.852864-0.98304-5.9648-1.335296-9.346048-0.16384-1.555456-0.045056-2.628608 0.57856-5.023744 0.413696-1.533952 0.413696-1.533952 0.990208-3.593216 2.751488-9.91232 3.7888-17.634304 2.905088-28.756992-0.831488-10.35776-2.632704-17.417216-5.960704-25.904128-0.570368-1.441792-0.570368-1.441792-1.05472-2.660352-1.482752-3.767296-1.959936-5.52448-2.229248-8.64256-0.347136-4.02944-0.19968-5.518336 0.740352-9.94816 1.656832-7.801856 2.195456-12.818432 1.625088-20.805632-0.759808-10.661888-3.013632-18.789376-6.825984-27.021312-0.536576-1.15712-2.635776-5.430272-2.942976-6.140928-0.626688-2.944-0.60928-5.095424-0.377856-6.688768 0.070656-0.38912 0.070656-0.38912 0.512-3.155968 2.59584-28.427264-17.5616-54.76352-45.824-59.350016l-299.742208-48.622592c-24.29952-3.938304-45.427712 14.0288-45.427712 38.740992V357.77024c0 18.947072 14.260224 36.04992 32.907264 39.51616a8982.016 8982.016 0 0 1 36.616192 6.884352l1.374208 0.262144c17.27488 3.291136 29.362176 5.67296 32.969728 6.52288 16.463872 3.88096 34.3552 34.414592 47.968256 82.7904 5.8368 20.740096 10.523648 43.123712 14.14144 65.53088 2.17088 13.444096 3.492864 23.839744 4.163584 30.32576 2.635776 19.497984 18.325504 36.97664 37.403648 42.037248 0.873472 0.38912 1.780736 0.514048 2.683904 0.62464 0.632832 0.125952 1.26976 0.239616 1.908736 0.33792 42.98752 4.046848 75.99104-28.086272 72.625152-72.02816zM350.48448 355.702784V194.69312l33.51552 5.43744V362.006528a9102.736384 9102.736384 0 0 0-33.51552-6.303744z m174.99648 234.41408c-2.215936-1.017856-4.943872-4.018176-5.157888-5.527552-0.6656-6.565888-2.092032-17.77664-4.407296-32.11264-3.857408-23.89504-8.86784-47.812608-15.19104-70.28736-16.877568-59.972608-39.48544-100.021248-74.05568-111.305728l-0.002048-163.832832 219.488256 35.603456c6.027264 0.97792 10.735616 7.129088 10.775552 9.88672-0.356352 1.42336-0.356352 1.42336-0.854016 4.368384-0.82944 5.70368-0.883712 12.199936 0.273408 19.245056 0.607232 3.709952 1.665024 7.04512 3.16416 10.514432 0.80384 1.855488 3.248128 6.83008 3.38944 7.136256 1.737728 3.750912 2.6112 6.903808 2.983936 12.125184 0.238592 3.344384 0.095232 4.67968-0.768 8.75008-1.774592 8.35584-2.310144 13.778944-1.547264 22.6304 0.673792 7.820288 2.17088 13.331456 5.03808 20.611072l1.032192 2.609152c1.89952 4.842496 2.685952 7.924736 3.151872 13.719552 0.4352 5.491712 0.036864 8.464384-1.486848 13.952-0.5376 1.913856-0.5376 1.913856-1.169408 4.257792-1.815552 6.97856-2.485248 12.982272-1.72032 20.222976 0.467968 4.494336 1.08544 8.722432 1.816576 12.668928 1.110016 5.9904 2.289664 10.431488 2.68288 11.324416 2.041856 8.471552-0.620544 11.442176-9.434112 10.391552l-76.726272-9.126912c-25.012224-2.95424-45.078528 16.44544-43.173888 41.631744l6.454272 84.260864c1.29024 16.847872-8.608768 27.225088-24.55552 26.284032zM512-14.222336c219.931648 0 398.222336 178.290688 398.222336 398.222336 0 219.931648-178.290688 398.222336-398.222336 398.222336-219.931648 0-398.222336-178.290688-398.222336-398.222336 0-219.931648 178.290688-398.222336 398.222336-398.222336z m0-56.88832C260.64896-71.110656 56.889344 132.64896 56.889344 384S260.64896 839.110656 512 839.110656 967.110656 635.35104 967.110656 384 763.35104-71.110656 512-71.110656z"  horiz-adv-x="1024" />

    
    <glyph glyph-name="shopping-cart-o" unicode="&#58971;" d="M136.129536 782.41792c43.70432 0 80.344064-33.020928 84.87424-76.489728l3.904512-37.48352h666.20416c31.418368 0 56.88832-25.470976 56.88832-56.889344 0-5.4272-0.776192-10.824704-2.306048-16.03072l-84.668416-288.29184c-6.56384-22.347776-26.0864-38.436864-49.275904-40.609792L272.04608 216.049664l3.584-34.393088c1.5104-14.4896 13.723648-25.496576 28.292096-25.496576h547.684352c15.709184 0 28.444672-12.734464 28.444672-28.443648 0-15.710208-12.735488-28.444672-28.444672-28.444672H303.9232c-43.70432 0-80.345088 33.019904-84.87424 76.489728L164.420608 700.030976c-1.509376 14.4896-13.722624 25.496576-28.291072 25.496576H56.889344c-15.710208 0-28.444672 12.735488-28.444672 28.444672s12.734464 28.444672 28.444672 28.444672h79.240192zM266.150912 272.633856l540.292096 50.628608 84.668416 288.29184h-660.2752l35.314688-338.920448zM341.332992-14.222336m-56.889344 0a56.889344 56.889344 0 1 1 113.778688 0 56.889344 56.889344 0 1 1-113.778688 0ZM739.555328-14.222336m-56.889344 0a56.889344 56.889344 0 1 1 113.778688 0 56.889344 56.889344 0 1 1-113.778688 0Z"  horiz-adv-x="1024" />

    
    <glyph glyph-name="smile-o" unicode="&#58979;" d="M512 18.285568c201.97888 0 365.714432 163.735552 365.714432 365.714432 0 201.97888-163.735552 365.714432-365.714432 365.714432-201.97888 0-365.714432-163.735552-365.714432-365.714432 0-201.97888 163.735552-365.714432 365.714432-365.714432z m0-60.952576C276.358144-42.667008 85.332992 148.358144 85.332992 384 85.332992 619.641856 276.358144 810.667008 512 810.667008c235.641856 0 426.667008-191.025152 426.667008-426.667008 0-235.641856-191.025152-426.667008-426.667008-426.667008zM355.330048 493.714432m-48.761856 0a48.761856 48.761856 0 1 1 97.523712 0 48.761856 48.761856 0 1 1-97.523712 0ZM671.379456 493.714432m-48.761856 0a48.761856 48.761856 0 1 1 97.523712 0 48.761856 48.761856 0 1 1-97.523712 0ZM701.063168 333.203456c5.608448 15.869952 23.020544 24.18688 38.890496 18.578432 15.868928-5.609472 24.18688-23.020544 18.577408-38.890496C722.24256 210.221056 624.896 140.19072 514.23232 140.19072c-110.66368 0-208.011264 70.03136-244.299776 172.700672-5.609472 15.869952 2.70848 33.281024 18.578432 38.890496 15.868928 5.608448 33.28-2.70848 38.889472-18.578432 27.74528-78.497792 102.20032-132.06016 186.831872-132.06016 84.630528 0 159.085568 53.562368 186.830848 132.06016z"  horiz-adv-x="1024" />

    
    <glyph glyph-name="volume-o" unicode="&#58980;" d="M298.667008 184.889344l224.561152-157.500416V740.611072L298.667008 583.110656H113.77664v-398.221312h184.889344z m0-56.889344H99.555328c-23.564288 0-42.665984 17.19296-42.665984 38.4v435.2c0 21.20704 19.101696 38.4 42.665984 38.4h199.11168L526.222336 810.667008c31.418368 0 56.88832-17.90976 56.88832-40.000512v-773.332992c0-22.091776-25.469952-40.000512-56.88832-40.000512L298.667008 128zM833.81248 705.81248C916.170752 623.45216 967.110656 509.67552 967.110656 384c0-125.67552-50.939904-239.453184-133.298176-321.81248l-40.226816 40.226816C865.649664 174.478336 910.222336 274.033664 910.222336 384c0 109.966336-44.572672 209.52064-116.636672 281.585664l40.226816 40.226816zM713.133056 585.133056C764.606464 533.6576 796.444672 462.546944 796.444672 384c0-78.546944-31.838208-149.6576-83.31264-201.133056l-40.225792 40.226816c41.179136 41.179136 66.649088 98.06848 66.649088 160.90624 0 62.83776-25.469952 119.72608-66.649088 160.90624l40.226816 40.226816z m-20.4032-411.0336c-15.70816 0-28.443648 12.734464-28.443648 28.443648 0 15.710208 12.734464 28.444672 28.443648 28.444672 15.710208 0 28.444672-12.734464 28.444672-28.444672 0-15.70816-12.734464-28.443648-28.444672-28.443648z m1.072128 361.91744c-15.709184 0-28.444672 12.734464-28.444672 28.444672 0 15.70816 12.735488 28.443648 28.444672 28.443648s28.444672-12.734464 28.444672-28.443648c0-15.710208-12.735488-28.444672-28.444672-28.444672z m119.45472-482.414592c-15.70816 0-28.443648 12.735488-28.443648 28.444672s12.734464 28.444672 28.443648 28.444672c15.710208 0 28.444672-12.735488 28.444672-28.444672s-12.734464-28.444672-28.444672-28.444672z m0.111616 604.019712c-15.710208 0-28.444672 12.734464-28.444672 28.443648 0 15.710208 12.734464 28.444672 28.444672 28.444672 15.70816 0 28.443648-12.734464 28.443648-28.444672 0-15.70816-12.734464-28.443648-28.443648-28.443648z"  horiz-adv-x="1024" />

    


  </font>
</defs>
</svg>
